<?xml version="1.0" encoding="UTF-8" standalone="no"?>
<!-- Generator: Adobe Illustrator 16.0.0, SVG Export Plug-In . SVG Version: 6.00 Build 0)  -->

<svg
   xmlns:dc="http://purl.org/dc/elements/1.1/"
   xmlns:cc="http://creativecommons.org/ns#"
   xmlns:rdf="http://www.w3.org/1999/02/22-rdf-syntax-ns#"
   xmlns:svg="http://www.w3.org/2000/svg"
   xmlns="http://www.w3.org/2000/svg"
   xmlns:sodipodi="http://sodipodi.sourceforge.net/DTD/sodipodi-0.dtd"
   xmlns:inkscape="http://www.inkscape.org/namespaces/inkscape"
   version="1.1"
   id="Calque_1"
   x="0px"
   y="0px"
   width="1280px"
   height="720px"
   viewBox="0 0 1280 720"
   enable-background="new 0 0 1280 720"
   xml:space="preserve"
   inkscape:version="0.48.4 r9939"
   sodipodi:docname="inastemp.svg"
   inkscape:export-filename="/home/bbramas/Projects/inastemp/Extra/inastemp.png"
   inkscape:export-xdpi="90"
   inkscape:export-ydpi="90"><metadata
     id="metadata53"><rdf:RDF><cc:Work
         rdf:about=""><dc:format>image/svg+xml</dc:format><dc:type
           rdf:resource="http://purl.org/dc/dcmitype/StillImage" /><dc:title></dc:title></cc:Work></rdf:RDF></metadata><defs
     id="defs51" /><sodipodi:namedview
     pagecolor="#ffffff"
     bordercolor="#666666"
     borderopacity="1"
     objecttolerance="10"
     gridtolerance="10"
     guidetolerance="10"
     inkscape:pageopacity="0"
     inkscape:pageshadow="2"
     inkscape:window-width="1855"
     inkscape:window-height="1176"
     id="namedview49"
     showgrid="false"
     inkscape:zoom="1.0125"
     inkscape:cx="894.58567"
     inkscape:cy="230.48199"
     inkscape:window-x="65"
     inkscape:window-y="24"
     inkscape:window-maximized="1"
     inkscape:current-layer="g5" /><g
     id="g3"><g
       id="g5"><path
         fill-rule="evenodd"
         clip-rule="evenodd"
         d="M510.188,421.125c-4.671,5.202-10.632,11.842-16.542,18.425    c-0.861-4.117-0.551-5.178,3.875-9.367c2.758-2.612,3.246-5.427,1.051-8.356c-6.458-8.622-13-17.184-19.656-25.654    c-9.115-11.6-21.897-18.372-34.834-24.209c-8.715-3.932-18.662-5.099-28.009-7.682c-3.499-0.966-6.829-2.528-10.294-3.639    c-1.176-0.377-2.529-0.201-3.803-0.277c-0.328,0.464-0.655,0.928-0.982,1.391c7.137,6.16,14.271,12.319,21.408,18.479    c-0.22,0.208-0.439,0.415-0.658,0.623c-11.5-2.237-22.984-4.548-34.502-6.684c-5.662-1.05-11.379-1.807-17.082-2.621    c-1.303-0.186-2.887-0.52-3.923,0.018c-1.728,0.898-3.118,2.446-4.65,3.72c1.437,1.17,2.702,2.819,4.347,3.415    c4.121,1.49,8.414,2.505,12.682,4.466c-0.803,0.127-1.604,0.345-2.412,0.368c-13.13,0.381-26.26,0.951-39.391,1.003    c-5.844,0.023-9.079,3.413-12.15,7.404c-10.354,13.45-18.075,28.312-23.814,44.268c-3.342,9.29-6.911,18.504-10.605,27.661    c-1.02,2.523-2.855,4.719-3.627,5.957c1.668,3.832,2.95,6.779,4.582,10.529c1.017-0.115,3.084,0.094,4.734-0.636    c3.115-1.378,4.86-0.089,7.098,1.951c14.328,13.068,29.369,24.706,47.947,31.865c18.861,7.268,38.083,9.397,57.657,7.521    c18.093-1.734,35.968-5.598,53.165-13.701c-1.621,3.917-3.127,7.56-4.635,11.204c0.658,0.453,1.316,0.905,1.975,1.359    c3.059-3.239,6.33-6.309,9.11-9.771c2.168-2.7,3.948-5.777,5.516-8.881c4.757-9.419,9.599-18.813,13.834-28.47    c1.685-3.841,2.239-8.306,2.646-12.551c0.809-8.418,5.835-14.625,10.56-20.908c3.957-5.262,8.44-10.155,13-14.915    c1.883-1.967,4.576-3.159,8.725-5.915c-2.852-2.038-5.198-3.324-7.028-5.133c-1.917-1.894-3.136-4.491-5.037-6.405    c-1.693-1.705-4.049-2.733-5.857-4.346c-4.712-4.2-9.318-8.52-13.901-12.86c-6.455-6.114-12.723-12.437-19.344-18.364    c-2.356-2.109-3.736-4.054-4.075-7.347c-2.462-23.905-11.214-45.569-24.407-65.463c-6.028-9.09-11.708-18.718-19.261-26.421    c-13.302-13.566-27.638-26.239-45.351-34.117c-1.911-0.849-4.281-0.667-6.354-0.953c6.673-14.35,19.563-27.584,37.713-22.245    c8.427,2.479,17.33,3.308,25.816,5.624c8.095,2.209,15.862,5.588,23.898,8.043c4.459,1.362,9.2,1.778,13.762,2.844    c1.867,0.437,4.059,1.015,5.314,2.299c7.005,7.166,13.501,14.842,20.686,21.814c8.045,7.808,16.527,15.18,25.033,22.493    c6.171,5.306,13.107,9.773,18.943,15.4c6.506,6.276,13.479,11.669,21.258,16.207c1.347,0.785,2.459,3.419,2.311,5.077    c-0.838,9.39-2.724,18.718-3.075,28.111c-0.757,20.229-1.179,40.486-0.989,60.726c0.111,11.924,1.151,23.896,2.668,35.734    c2.301,17.963,6.447,35.504,15.062,51.698c2.331,4.382,4.356,8.925,6.544,13.383c0.438,0.893,0.794,1.938,1.496,2.57    c6.494,5.849,13.027,11.656,19.633,17.378c0.869,0.753,2.211,0.961,3.897,0.942c-12.21-17.931-23.925-35.962-30.306-56.833    c6.287-3.28,12.918-6.328,19.096-10.115c3.742-2.292,6.848-5.658,10.127-8.664c6.843-6.274,13.76-12.479,20.367-18.994    c6.347-6.259,12.014-13.234,18.585-19.231c5.971-5.447,12.723-10.046,19.202-14.924c2.51-1.889,5.246-3.476,7.831-5.271    c12.365-8.586,26.538-12.894,40.708-17.193c0.863-0.262,1.898,0.047,3.01,0.098c0.11,1.724,0.537,3.269,0.245,4.664    c-2.102,10.037-4.603,19.998-6.475,30.077c-1.6,8.616-2.546,17.354-3.754,26.042c-1.725,12.414-3.581,24.812-5.053,37.255    c-0.522,4.417-0.083,8.947-0.083,13.427c0.539,0.105,1.079,0.211,1.619,0.316c1.345-4.437,2.939-8.813,3.987-13.318    c3.23-13.893,6.645-27.761,9.252-41.775c2.994-16.1,5.145-32.355,7.769-48.525c2.388-14.716,5.111-29.38,7.33-44.121    c2.023-13.449,3.79-26.947,5.278-40.467c3.05-27.707,5.916-55.436,8.691-83.172c1.007-10.068,1.576-20.181,2.271-30.279    c0.328-4.763,0.534-9.538,0.693-14.311c0.146-4.407-1.905-6.764-6.483-6.979c-1.933-0.091-3.835-0.825-5.75-1.268    c-0.09-0.495-0.181-0.99-0.271-1.484c2.925-0.783,5.809-1.82,8.783-2.306c14.333-2.336,25.498,3.629,34.547,14.062    c6.675,7.695,13.268,15.545,19.022,23.927c4.574,6.662,7.771,14.262,11.676,21.393c4.825,8.81,10.409,17.273,14.476,26.416    c5.651,12.708,9.727,26.117,15.352,38.84c5.475,12.381,11.483,24.609,18.341,36.268c4.696,7.982,4.311,16.517,5.358,24.906    c0.979,7.835,1.039,15.812,1.091,23.729c0.095,14.838-0.419,29.685-0.118,44.516c0.502,24.715,1.41,49.422,2.238,74.13    c0.138,4.114,0.667,8.222,1.136,12.318c0.587,5.137-0.403,9.716-3.45,14.069c-6.355,9.083-11.69,18.974-18.737,27.459    c-10.044,12.095-21.198,23.273-31.971,34.756c-12.63,13.464-27.342,24.164-43.453,33.146c-8.867,4.942-17.055,11.103-25.9,16.089    c-5.964,3.363-12.523,5.681-18.851,8.386c-8.143,3.48-16.438,6.626-24.458,10.367c-17.476,8.15-35.673,14.064-54.483,18.102    c-13.156,2.825-26.336,5.594-39.595,7.865c-6.965,1.194-14.134,1.15-21.188,1.872c-16.784,1.717-32.163-3.858-47.64-8.976    c-10.042-3.319-20.214-6.307-30.063-10.126c-6.57-2.547-12.829-6.029-18.949-9.573c-7.766-4.499-15.46-9.186-22.808-14.331    c-10.813-7.571-21.396-15.483-31.892-23.49c-25.271-19.28-50.172-39.054-75.766-57.892c-10.514-7.738-22.533-13.403-33.658-20.349    c-7.441-4.646-14.418-10.029-21.775-14.817c-6.71-4.369-13.669-8.354-20.468-12.589c-0.826-0.515-1.849-1.49-1.915-2.322    c-0.396-4.922-3.476-6.283-7.805-7.08c-6.166-1.134-5.869-1.63-3.905-7.502c6.309-18.849,12.521-37.738,18.302-56.755    c4.461-14.676,10.703-28.417,19.17-41.17c0.729-1.097,1.84-1.936,2.589-3.021c1.175-1.698,2.191-3.507,3.274-5.269    c-1.934-0.965-3.869-1.93-7.098-3.54c5.709-3.122,10.872-6.54,16.488-8.859c6.121-2.528,12.662-4.039,19.691-7.391    c-1.469-0.992-2.936-1.983-4.403-2.977c0.012-0.45,0.023-0.901,0.035-1.353c5.663-0.21,11.336-0.289,16.982-0.72    c1.517-0.115,2.964-1.277,4.423-1.998c3.699-1.828,7.386-3.676,10.825-5.391c0.177,2.088-0.342,4.752,0.653,5.566    c1.332,1.088,3.926,1.256,5.821,0.926c9.967-1.744,19.884-3.768,29.818-5.694c0.11,0.522,0.222,1.045,0.333,1.568    c-1.793,0.599-3.775,0.902-5.323,1.886c-1.321,0.842-2.147,2.463-3.192,3.74c1.531,0.694,3.244,2.234,4.568,1.951    c11.729-2.504,22.342,1.848,32.577,6.005c14.075,5.717,25.509,15.757,36.612,25.978c6.07,5.588,12.346,10.983,18.074,16.907    C499.142,407.995,504.572,414.707,510.188,421.125z"
         id="path9" /><path
         fill-rule="evenodd"
         clip-rule="evenodd"
         d="M450.978,181.579c-7.876,6.681-15.232,12.921-22.593,19.156    c-0.252,0.214-0.676,0.311-0.808,0.57c-4.046,7.927-10.683,6.449-17.579,5.233c-5.186-0.915-10.538-1.276-15.806-1.193    c-2.894,0.045-6.497,0.697-8.515,2.496c-7.329,6.533-16.936,11-20.805,20.826c-1.65,4.191-2.127,8.833-3.346,13.211    c-0.439,1.575-1.106,3.591-2.328,4.363c-10.53,6.655-22.086,10.947-34.188,14.636c22.438-91.473,113.346-201.484,257.994-214.102    c155.045-13.527,276.556,90.539,310.693,211.865c-4.989-2.244-9.436-4.078-13.732-6.21c-10.786-5.354-21.313-11.272-32.297-16.171    c-14.158-6.314-24.693-15.733-31.646-29.847c-8.938-18.142-21.606-33.729-36.487-47.39c-10.856-9.967-23.593-13.403-38.027-9.337    c-3.812,1.073-7.552,2.548-11.432,3.179c-2.773,0.452-5.918,0.401-8.568-0.449c-17.921-5.747-35.47-13.017-53.734-17.179    c-9.365-2.135-16.135-7.592-24.226-11.208c-18.202-8.139-36.377-8.053-54.197,0.841c-2.766,1.381-4.185,5.29-6.554,7.708    c-1.323,1.351-3.256,2.756-5.024,2.916c-21.529,1.958-42.577,5.926-62.723,14.038c-3.982,1.604-7.402,1.851-12.014-0.181    c-10.932-4.816-22.5-4.319-33.193,1.467c-5.449,2.949-10.77,6.479-15.332,10.641C448.406,167.028,446.393,174.041,450.978,181.579    z"
         id="path11" /><path
         fill-rule="evenodd"
         clip-rule="evenodd"
         d="M722.621,362.107c-33.015,9.423-60.372,26.911-84.66,51.672    c-3.501-8.803-6.896-17.275-10.24-25.769c-2.366-6.012-5.007-11.944-6.905-18.103c-2.152-6.989-3.462-14.233-5.41-21.292    c-3.243-11.751-6.993-23.371-9.96-35.189c-1.658-6.601-2.198-13.486-3.188-20.25c-1.209-8.275-2.652-16.529-3.463-24.845    c-0.999-10.259-1.507-20.567-2.119-30.859c-0.43-7.212-1.061-14.442-0.924-21.651c0.239-12.567,0.879-25.132,1.711-37.674    c0.098-1.454,2.412-3.858,3.813-3.944c7.511-0.461,15.06-0.263,22.593-0.426c3.721-0.08,5.057,2.207,6.177,5.217    c4.025,10.825,7.881,21.729,12.372,32.361c7.298,17.276,18.066,32.33,31.147,45.691c9.983,10.199,21.049,19.035,33.412,26.325    c5.824,3.435,10.939,8.063,16.418,12.093c1.827,1.345,4.016,2.271,5.634,3.813c3.065,2.925,2.96,6.801,2.381,10.646    c-1.798,11.928-3.543,23.865-5.489,35.769C724.99,351.393,723.654,357.026,722.621,362.107z"
         id="path13" /><path
         fill-rule="evenodd"
         clip-rule="evenodd"
         d="M490.861,428.518c-3.75,1.98-4.394,4.939-4.245,9.692    c0.212,6.796-2.427,13.643-3.481,20.522c-1.839,12.002-6.123,22.87-15.596,30.739c-9.087,7.548-19.827,12.257-31.065,15.927    c-18.96,6.192-38.53,8.47-58.28,8.457c-7.259-0.005-14.81-2.118-21.711-4.665c-14.355-5.299-27.52-13.039-39.71-22.323    c-5.78-4.403-11.396-9.024-17.415-13.811c1.9-2.585,3.7-4.729,5.131-7.096c0.854-1.411,1.127-3.174,1.662-4.778    c-1.652-0.376-3.3-0.779-4.962-1.11c-0.46-0.092-0.962,0.028-1.793,0.068c3.137-7.843,5.735-15.702,9.341-23.068    c7.071-14.448,14.742-28.602,22.069-42.927c1.382-2.701,3.118-3.528,6.251-3.565c16.054-0.186,32.112-0.57,48.149-1.305    c4.339-0.198,8.651-1.716,12.88-2.959c0.877-0.258,1.322-1.988,2.445-3.823c7.496,1.833,15.754,4.021,24.1,5.784    c2.367,0.5,4.994-0.234,7.502-0.402c-0.182-2.027,0.167-4.312-0.66-6.029c-1.479-3.071-3.668-5.802-6.303-9.806    C457.172,379.676,478.238,398.596,490.861,428.518z M335.411,405.587c-1.497,1.739-2.665,2.684-3.302,3.905    c-2.891,5.546-3.087,11.399-1.754,17.419c0.305,1.379,0.699,3.152,0.115,4.239c-1.928,3.582-4.746,6.729-6.381,10.416    c-3.43,7.74-8.687,14.906-8.439,23.935c0.041,1.488,0.52,2.964,0.795,4.445c1.515-0.314,3.438-0.151,4.468-1.032    c3.489-2.98,6.567-6.435,9.979-9.515c5.357-4.838,10.843-9.537,16.329-14.229c0.385-0.328,1.266-0.272,1.854-0.136    c5.865,1.369,10.354-1.66,14.522-4.916c5.426-4.237,7.775-14.495,4.573-19.91c-2.343,2.488-4.536,4.902-6.82,7.228    c-5.53,5.633-9.525,5.754-15.457,0.713C339.299,422.547,336.672,415.057,335.411,405.587z M452.975,430.12    c-0.574-0.364-1.146-0.728-1.721-1.092c-1.709,2.018-3.718,3.854-5.067,6.089c-2.909,4.815-5.444,9.854-8.197,14.767    c-4.972,8.873-13.013,13.688-22.582,15.564c-10.705,2.1-21.483,1.02-31.872-2.227c-6.269-1.96-12.226-4.899-18.429-7.1    c-1.661-0.589-3.711-0.081-5.583-0.076c0.722,1.663,0.99,3.88,2.236,4.902c8.584,7.036,18.479,11.971,29.176,14.368    c11.537,2.585,23.387,1.581,35.054-0.284c1.172-0.188,2.46-0.902,3.292-1.762c9.934-10.245,16.931-22.335,21.912-35.623    C452.091,435.252,452.396,432.635,452.975,430.12z M397.861,429.093c0,2.306,0.152,4.236-0.029,6.134    c-0.49,5.155,2.245,8.542,7.404,8.956c0.969,0.077,1.939,0.146,2.911,0.175c8.086,0.229,17.856-0.952,20.255-11.589    c1.664-7.376-2.543-20.718-8.271-25.706c-4.605-4.012-9.97-3.853-15.215-5.032c-8.386-1.89-14.7,1.988-20.663,6.959    c-0.805,0.67-1.492,2.003-1.492,3.03c-0.002,7.771,1.134,15.199,7.487,21.091C392.55,431.896,394.791,430.713,397.861,429.093z     M424.422,401.881c2.66,9.361,12.776,15.937,21.966,15.041c2.067-0.201,4.76,1.095,6.417,2.551    c4.705,4.137,8.922,8.822,13.566,13.033c1.078,0.979,3.09,0.927,4.672,1.348c0.136-1.544,0.891-3.399,0.299-4.58    c-2.334-4.655-5.022-9.14-7.71-13.609c-2.17-3.61-6.363-7.082-6.413-10.662c-0.102-7.205-3.666-11.81-8.264-16.107    c-1.253-1.172-3.705-1.059-5.607-1.535c0.756,1.386,1.505,2.774,2.27,4.155c0.477,0.862,1.056,1.678,1.451,2.574    c2.385,5.414,1.068,10.636-3.779,12.844c-4.596,2.092-6.316-1.963-8.479-4.821C431.872,398.229,429.855,398.176,424.422,401.881z"
         id="path15" /><path
         fill-rule="evenodd"
         clip-rule="evenodd"
         d="M517.762,197.609c22.917-9.631,45.194-19.097,70.212-21.33    c0,15.025-0.465,30.061,0.124,45.054c0.652,16.568,2.604,33.082,3.386,49.647c1.116,23.672,6.2,46.695,11.322,69.645    c3.171,14.205,8.377,27.973,12.961,41.84c4.113,12.443,8.665,24.742,12.898,37.147c0.408,1.198,0.5,3.274-0.212,3.969    c-9.586,9.355-19.34,18.537-29.819,28.491c-3.071-6.644-5.938-11.852-7.943-17.372c-5.429-14.938-10.363-30.057-15.749-45.011    c-3.246-9.011-1.967-18.076-0.871-27.103c1.38-11.373,2.782-22.788,5.174-33.972c1.277-5.971,4.317-11.668,7.17-17.173    c3.91-7.544,3.901-7.888-4.622-8.515c-0.481-0.035-0.948-0.26-1.813-0.508c0.635-1.678,1.238-3.274,2.41-6.371    c-4.073-0.09-7.797-0.879-11.129-0.065c-4.1,1.004-6.856-0.102-10.566-1.868c-12.368-5.893-16.409-16.771-19.851-28.667    c-4.739-16.383-9.95-32.635-15.279-48.838C523.502,210.343,520.566,204.362,517.762,197.609z"
         id="path17" /><path
         fill-rule="evenodd"
         clip-rule="evenodd"
         d="M432.486,209.631c3.861-3.515,7.277-6.718,10.799-9.801    c3.855-3.377,7.938-6.504,11.668-10.01c2.178-2.049,4.101-2.268,6.957-1.497c4.794,1.292,10.375,3.69,14.576,2.346    c10.024-3.21,21.265-4.148,29.374-11.947c5.032-4.839,6.921-11.255,6.747-18.116c-0.079-3.16,0.631-4.706,3.979-5.505    c9.369-2.239,18.602-5.046,27.955-7.356c4.256-1.052,8.676-1.431,13.012-2.172c6.79-1.159,13.542-2.659,20.377-3.361    c1.854-0.19,4.859,1.464,5.783,3.131c5.463,9.857,14.812,13.777,24.807,15.855c7.828,1.629,16.219,2.72,24.013,1.611    c5.429-0.772,12.342-0.636,16.348-6.764c1.894-2.895,5.106-4.928,7.724-7.35c0.122-0.112,0.328-0.176,0.386-0.31    c0.99-2.288,1.89-6.488,2.953-6.528c3.575-0.138,7.308,0.896,10.8,2.036c15.546,5.074,31.095,10.157,46.506,15.622    c7.118,2.524,13.979,5.813,20.819,9.046c1.203,0.568,2.417,2.568,2.446,3.931c0.208,9.817,0.111,19.641,0.111,30.587    c-3.98-2.247-7.418-3.988-10.652-6.047c-19.447-12.377-40.951-19.7-63.14-24.954c-10.221-2.419-20.844-3.201-31.313-4.508    c-20.233-2.527-40.391-0.898-60.26,2.804c-20.149,3.755-40.13,8.541-58.108,19.182c-9.385,5.554-19.099,10.579-28.279,16.443    c-5.664,3.618-10.52,8.479-15.929,12.527c-1.285,0.962-3.522,1.598-5.004,1.199C456.477,216.641,445.09,213.263,432.486,209.631z"
         id="path19" /><path
         fill-rule="evenodd"
         clip-rule="evenodd"
         d="M389.739,334.913c-10.925-2.396-18.792,4.227-28.694,5.939    c1.799-3.252,3.597-6.504,5.574-10.079c-3.172-2.058-6.229-1.193-8.775,1.048c-1.824,1.604-3.744,3.694-4.393,5.925    c-1.694,5.818-5.197,7.007-10.964,7.213c-5.921,0.211-11.815,2.515-17.603,4.294c-1.685,0.518-2.957,2.371-5.027,4.128    c2.531,1.101,4.281,1.862,6.662,2.899c-4.557,1.958-8.68,3.73-13.132,5.645c-0.94-23.707-0.381-46.707,3.953-69.929    c10.896-1.597,21.695-3.18,32.496-4.763c0.3,0.644,0.601,1.287,0.9,1.93c-2.786,3.508-5.571,7.016-8.366,10.536    c3.154,4.921,5.622,5.524,11.203,3.11c7.551-3.266,15.318-6.061,22.731-9.605c5.851-2.798,11.308-6.424,16.938-9.68    c1.971-1.14,3.949-2.263,5.908-3.418c3.7-2.184,7.389-4.385,11.859-7.041c21.311,25.771,40.352,52.988,46.338,87.032    c-10.367-4.241-21.063-8.617-31.836-13.024c-0.205,0.268,0.092-0.244,0.505-0.633c1.288-1.215,2.619-2.382,3.935-3.567    c-1.632-1.026-3.143-2.599-4.914-2.991c-12.337-2.731-24.635-2.227-36.836,1.021c-0.932,0.248-1.895,0.377-3.688,0.725    C386.361,339.255,387.713,337.519,389.739,334.913z"
         id="path21" /><path
         fill-rule="evenodd"
         clip-rule="evenodd"
         d="M636.576,173.392c11.548,2.578,22.068,4.594,32.398,7.33    c9.623,2.548,19.407,5.037,28.469,9.032c13.231,5.833,25.92,12.912,38.718,19.692c1.406,0.745,2.901,3.038,2.848,4.559    c-0.517,14.458-1.122,28.922-2.188,43.349c-0.749,10.139-2.253,20.222-3.556,31.503c-5.605-3.652-10.382-6.468-14.84-9.723    c-11.454-8.363-23.691-15.949-33.902-25.649c-12.844-12.2-24.874-25.504-32.111-42.228c-4.576-10.575-9.393-21.046-14.036-31.594    C637.734,178.208,637.476,176.585,636.576,173.392z"
         id="path23" /><path
         fill-rule="evenodd"
         clip-rule="evenodd"
         d="M958.886,275.297c-2.07,3.63-3.644,7.688-6.317,10.8    c-5.387,6.27-9.531,13.392-15.958,19.095c-4.47,3.966-7.246,11.343-4.736,18.649c0.454,1.324,0.186,2.896,0.3,5.466    c-4.614-2.851-8.597-5.022-12.271-7.631c-16.875-11.976-35.604-20.362-54.709-27.874c-5.176-2.036-8.137-5.146-10.271-9.875    c-6.88-15.246-13.882-30.438-20.813-45.662c-0.104-0.23,0.111-0.606,0.241-1.211c9.52,5.492,18.734,11.37,28.449,16.252    c9.239,4.645,19.005,8.239,28.529,12.321c5.442,2.333,10.667,5.688,16.344,6.84c8.003,1.625,16.327,2.084,24.527,2.211    c8.371,0.13,16.758-0.743,25.137-1.178C957.854,274.099,958.369,274.697,958.886,275.297z"
         id="path25" /><path
         fill-rule="evenodd"
         clip-rule="evenodd"
         d="M865.611,302.29c12.162,6.043,24.399,11.942,36.405,18.282    c1.759,0.929,3.34,3.903,3.443,6.009c2.17,44.013-4.682,86.541-21.527,127.357c-0.313,0.76-0.703,1.494-1.132,2.195    c-0.142,0.23-0.519,0.316-1.58,0.915c0-7.084,0.208-13.74-0.039-20.38c-0.681-18.244-2.029-36.477-2.15-54.72    c-0.063-9.355,1.953-18.721,2.989-28.087c0.691-6.244,1.436-12.488,1.853-18.753c0.08-1.188-1.004-2.751-1.991-3.669    c-8.418-7.832-11.793-18.607-17.225-28.178C864.976,302.938,865.293,302.614,865.611,302.29z"
         id="path27" /><path
         fill-rule="evenodd"
         clip-rule="evenodd"
         d="M362.146,289.221c1.372-1.301,2.975-2.438,4.039-3.954    c0.778-1.107,1.554-3.106,1.056-3.993c-0.596-1.063-2.582-1.987-3.904-1.907c-17.82,1.067-35.706,1.688-53.102,6.342    c-0.43,0.115-0.918,0.016-1.432,0.016c2.835-6.469,2.576-6.994-4.186-7.992c-2.926-0.432-5.885-0.637-8.814-1.045    c-2.781-0.389-5.543-0.908-8.701-1.436c0.479-0.735,0.743-1.593,1.107-1.637c5.351-0.654,10.732-1.074,16.066-1.824    c2.62-0.369,5.131-1.459,7.742-1.945c4.109-0.766,8.316-1.062,12.383-1.992c3.905-0.895,7.699-2.296,11.515-3.561    c4.757-1.578,9.503-3.192,14.218-4.894c2.607-0.941,5.169-2.029,7.697-3.169c2.69-1.214,5.371-2.472,7.949-3.9    c1.502-0.832,2.881-1.943,4.168-3.094c3.041-2.718,5.924-2.695,9.293-0.346c7.295,5.085,14.793,9.875,22.152,14.87    c1.326,0.9,2.382,2.2,4.795,4.479c-14.764,7.983-28.71,15.525-42.656,23.067C363.068,290.61,362.607,289.916,362.146,289.221z"
         id="path29" /><path
         fill-rule="evenodd"
         clip-rule="evenodd"
         d="M533.662,273.844c-19.76-15.244-38.513-31.394-55.31-51.078    c10.667-7.246,21.298-14.468,32.523-22.094C521.53,224.655,527.137,249.325,533.662,273.844z"
         id="path31" /><path
         fill-rule="evenodd"
         clip-rule="evenodd"
         d="M611.943,127.704c11.297-0.613,21.63,2.955,31.305,8.216    c6.475,3.52,6.661,8.572,0.469,12.493c-10.425,6.6-21.888,9.248-34.012,5.467c-4.766-1.486-9.457-3.659-13.676-6.322    c-4.04-2.552-4.963-7.027-2.971-11.323c2.07-4.468,5.556-7.845,10.765-8.475C606.493,127.438,609.234,127.704,611.943,127.704z"
         id="path33" /><path
         fill-rule="evenodd"
         clip-rule="evenodd"
         d="M471.615,183.632c-6.074,0.274-10.438-0.47-12.331-4.748    c-1.747-3.945,0.841-7.225,2.988-10.788c4.226-7.011,11.284-10.488,17.743-13.608c5.369-2.594,12.975-1.854,18.443,2.25    c7.276,5.46,4.986,11.718-1.391,17.777C489.537,181.668,479.688,182.716,471.615,183.632z"
         id="path35" /><path
         fill-rule="evenodd"
         clip-rule="evenodd"
         d="M573.623,418.615c2.873,6.125,5.619,12.313,8.658,18.354    c3.051,6.065,6.394,11.984,9.991,18.678c-4.159,1.973-8.228,3.902-13.747,6.521c-2.203-15.271-4.226-29.296-6.248-43.321    C572.726,418.77,573.174,418.692,573.623,418.615z"
         id="path37" /><path
         fill-rule="evenodd"
         clip-rule="evenodd"
         fill="#FFFFFF"
         d="M335.411,405.587c1.261,9.47,3.888,16.96,10.482,22.563    c5.932,5.041,9.927,4.92,15.457-0.713c2.284-2.325,4.478-4.739,6.82-7.228c3.202,5.415,0.853,15.673-4.573,19.91    c-4.168,3.256-8.657,6.285-14.522,4.916c-0.589-0.137-1.47-0.192-1.854,0.136c-5.486,4.691-10.972,9.391-16.329,14.229    c-3.411,3.08-6.489,6.534-9.979,9.515c-1.03,0.881-2.953,0.718-4.468,1.032c-0.275-1.481-0.754-2.957-0.795-4.445    c-0.247-9.028,5.01-16.194,8.439-23.935c1.635-3.687,4.453-6.834,6.381-10.416c0.584-1.087,0.189-2.86-0.115-4.239    c-1.333-6.02-1.137-11.873,1.754-17.419C332.746,408.271,333.914,407.326,335.411,405.587z"
         id="path39" /><path
         fill-rule="evenodd"
         clip-rule="evenodd"
         fill="#FFFFFF"
         d="M452.975,430.12c-0.579,2.515-0.884,5.132-1.781,7.527    c-4.981,13.288-11.979,25.378-21.912,35.623c-0.832,0.859-2.12,1.574-3.292,1.762c-11.667,1.865-23.517,2.869-35.054,0.284    c-10.697-2.397-20.592-7.332-29.176-14.368c-1.246-1.022-1.515-3.239-2.236-4.902c1.872-0.005,3.922-0.513,5.583,0.076    c6.203,2.2,12.16,5.14,18.429,7.1c10.389,3.246,21.167,4.326,31.872,2.227c9.569-1.876,17.61-6.691,22.582-15.564    c2.753-4.912,5.288-9.951,8.197-14.767c1.35-2.234,3.358-4.071,5.067-6.089C451.828,429.393,452.4,429.756,452.975,430.12z"
         id="path41" /><path
         fill-rule="evenodd"
         clip-rule="evenodd"
         fill="#FFFFFF"
         d="M397.861,429.093c-3.07,1.62-5.312,2.804-7.612,4.018    c-6.354-5.892-7.489-13.32-7.487-21.091c0-1.027,0.688-2.36,1.492-3.03c5.963-4.971,12.277-8.849,20.663-6.959    c5.245,1.18,10.609,1.021,15.215,5.032c5.728,4.988,9.935,18.33,8.271,25.706c-2.398,10.637-12.169,11.817-20.255,11.589    c-0.972-0.028-1.942-0.098-2.911-0.175c-5.159-0.414-7.895-3.801-7.404-8.956C398.014,433.329,397.861,431.398,397.861,429.093z     M406.863,435.98c2.301,0.149,4.279,0.412,6.254,0.381c5.104-0.082,9.329-3.847,8.151-7.811    c-1.691-5.694-3.915-11.271-6.438-16.652c-0.758-1.616-3.188-3.238-4.989-3.408c-3.476-0.328-7.138-0.023-10.563,0.735    c-7.531,1.667-9.182,4.997-6.428,11.845C405.732,422.607,406.374,423.271,406.863,435.98z"
         id="path43" /><path
         fill-rule="evenodd"
         clip-rule="evenodd"
         fill="#FFFFFF"
         d="M424.422,401.881c5.434-3.705,7.45-3.651,10.388,0.23    c2.163,2.858,3.884,6.913,8.479,4.821c4.848-2.208,6.164-7.43,3.779-12.844c-0.396-0.896-0.975-1.712-1.451-2.574    c-0.765-1.381-1.514-2.77-2.27-4.155c1.902,0.477,4.354,0.363,5.607,1.535c4.598,4.298,8.162,8.902,8.264,16.107    c0.05,3.58,4.243,7.052,6.413,10.662c2.688,4.47,5.376,8.954,7.71,13.609c0.592,1.181-0.163,3.036-0.299,4.58    c-1.582-0.421-3.594-0.369-4.672-1.348c-4.645-4.211-8.861-8.896-13.566-13.033c-1.657-1.456-4.35-2.752-6.417-2.551    C437.198,417.817,427.082,411.242,424.422,401.881z"
         id="path45" /><path
         fill-rule="evenodd"
         clip-rule="evenodd"
         d="M406.863,435.98c-0.489-12.709-1.131-13.373-14.014-14.91    c-2.754-6.848-1.104-10.178,6.428-11.845c3.426-0.759,7.088-1.063,10.563-0.735c1.802,0.17,4.231,1.792,4.989,3.408    c2.523,5.381,4.747,10.958,6.438,16.652c1.178,3.964-3.047,7.729-8.151,7.811C411.143,436.393,409.164,436.13,406.863,435.98z"
         id="path47" /></g></g></svg>