<?xml version="1.0" encoding="UTF-8" standalone="no"?>
<svg
   xmlns:dc="http://purl.org/dc/elements/1.1/"
   xmlns:cc="http://creativecommons.org/ns#"
   xmlns:rdf="http://www.w3.org/1999/02/22-rdf-syntax-ns#"
   xmlns:svg="http://www.w3.org/2000/svg"
   xmlns="http://www.w3.org/2000/svg"
   xmlns:sodipodi="http://sodipodi.sourceforge.net/DTD/sodipodi-0.dtd"
   xmlns:inkscape="http://www.inkscape.org/namespaces/inkscape"
   version="1.1"
   viewBox="0 0 228.76694 230.71146"
   stroke-miterlimit="10"
   id="svg179"
   sodipodi:docname="Complexesppintervals.svg"
   width="228.76694"
   height="230.71146"
   style="fill:none;stroke:none;stroke-linecap:square;stroke-miterlimit:10"
   inkscape:version="0.92.2 2405546, 2018-03-11">
  <metadata
     id="metadata185">
    <rdf:RDF>
      <cc:Work
         rdf:about="">
        <dc:format>image/svg+xml</dc:format>
        <dc:type
           rdf:resource="http://purl.org/dc/dcmitype/StillImage" />
        <dc:title></dc:title>
      </cc:Work>
    </rdf:RDF>
  </metadata>
  <defs
     id="defs183" />
  <sodipodi:namedview
     pagecolor="#ffffff"
     bordercolor="#666666"
     borderopacity="1"
     objecttolerance="10"
     gridtolerance="10"
     guidetolerance="10"
     inkscape:pageopacity="0"
     inkscape:pageshadow="2"
     inkscape:window-width="2560"
     inkscape:window-height="1376"
     id="namedview181"
     showgrid="false"
     fit-margin-top="0"
     fit-margin-left="0"
     fit-margin-right="0"
     fit-margin-bottom="0"
     inkscape:zoom="2.8284271"
     inkscape:cx="15.585841"
     inkscape:cy="153.38371"
     inkscape:window-x="0"
     inkscape:window-y="27"
     inkscape:window-maximized="1"
     inkscape:current-layer="svg179" />
  <clipPath
     id="p.0">
    <path
       d="M 0,0 H 960 V 540 H 0 Z"
       id="path2"
       inkscape:connector-curvature="0"
       style="clip-rule:nonzero" />
  </clipPath>
  <path
     style="fill:#000000;fill-opacity:0;fill-rule:evenodd"
     inkscape:connector-curvature="0"
     id="path7"
     d="m 220.2664,25.711456 c 0,8.091122 -7.27872,14.777401 -13,20.498688 -4.40327,4.403282 0.65382,15.390015 -5,18 -9.71404,4.484306 -21.67706,-5.310898 -32,-2.498688 -11.43555,3.115311 -19.25327,20.757248 -15.50131,31.999997 1.60212,4.80075 9.87671,6.554667 14.50131,4.49869 4.56322,-2.02869 2.9675,-9.9675 6.49869,-13.49869 5.77981,-5.77982 16.57269,-2.987355 24.50131,-0.999997" />
  <path
     style="fill-rule:evenodd;stroke:#990000;stroke-width:1;stroke-linecap:butt;stroke-linejoin:round"
     inkscape:connector-curvature="0"
     id="path9"
     d="m 220.2664,25.711456 c 0,8.091122 -7.27872,14.777401 -13,20.498688 -4.40327,4.403282 0.65382,15.390015 -5,18 -9.71404,4.484306 -21.67706,-5.310898 -32,-2.498688 -11.43555,3.115311 -19.25327,20.757248 -15.50131,31.999997 1.60212,4.80075 9.87671,6.554667 14.50131,4.49869 4.56322,-2.02869 2.9675,-9.9675 6.49869,-13.49869 5.77981,-5.77982 16.57269,-2.987355 24.50131,-0.999997" />
  <path
     style="fill-rule:evenodd;stroke:#595959;stroke-width:1;stroke-linecap:butt;stroke-linejoin:round"
     inkscape:connector-curvature="0"
     id="path13"
     d="m 21.768265,19.715028 206.488195,0.02435" />
  <path
     style="fill:#000000;fill-opacity:0;fill-rule:evenodd"
     inkscape:connector-curvature="0"
     id="path15"
     d="M 21.768265,55.324318 228.25645,54.28495" />
  <path
     style="fill-rule:evenodd;stroke:#595959;stroke-width:1;stroke-linecap:butt;stroke-linejoin:round"
     inkscape:connector-curvature="0"
     id="path17"
     d="M 21.768265,55.324318 228.25645,54.28495" />
  <path
     style="fill:#000000;fill-opacity:0;fill-rule:evenodd"
     inkscape:connector-curvature="0"
     id="path19"
     d="M 21.768265,90.401743 228.25646,89.362373" />
  <path
     style="fill-rule:evenodd;stroke:#595959;stroke-width:1;stroke-linecap:butt;stroke-linejoin:round"
     inkscape:connector-curvature="0"
     id="path21"
     d="M 21.768265,90.401773 228.25646,89.362403" />
  <path
     style="fill:#000000;fill-opacity:0;fill-rule:evenodd"
     inkscape:connector-curvature="0"
     id="path23"
     d="M 21.768265,125.47917 228.25646,124.4398" />
  <path
     style="fill-rule:evenodd;stroke:#595959;stroke-width:1;stroke-linecap:butt;stroke-linejoin:round"
     inkscape:connector-curvature="0"
     id="path25"
     d="M 21.768265,125.47914 228.25646,124.43977" />
  <path
     style="fill:#000000;fill-opacity:0;fill-rule:evenodd"
     inkscape:connector-curvature="0"
     id="path27"
     d="M 21.768265,160.55659 228.25646,159.51722" />
  <path
     style="fill-rule:evenodd;stroke:#595959;stroke-width:1;stroke-linecap:butt;stroke-linejoin:round"
     inkscape:connector-curvature="0"
     id="path29"
     d="M 21.768265,160.55662 228.25646,159.51725" />
  <path
     style="fill:#000000;fill-opacity:0;fill-rule:evenodd"
     inkscape:connector-curvature="0"
     id="path31"
     d="M 21.768265,195.63403 228.25646,194.59466" />
  <path
     style="fill-rule:evenodd;stroke:#595959;stroke-width:1;stroke-linecap:butt;stroke-linejoin:round"
     inkscape:connector-curvature="0"
     id="path33"
     d="M 21.768265,195.63403 228.25646,194.59466" />
  <path
     style="fill:#000000;fill-opacity:0;fill-rule:evenodd"
     inkscape:connector-curvature="0"
     id="path35"
     d="M 21.768265,230.71145 228.25646,229.67208" />
  <path
     style="fill-rule:evenodd;stroke:#595959;stroke-width:1;stroke-linecap:butt;stroke-linejoin:round"
     inkscape:connector-curvature="0"
     id="path37"
     d="m 21.768265,230.20323 206.488195,-0.0229" />
  <path
     style="fill-rule:evenodd;stroke:#595959;stroke-width:1;stroke-linecap:butt;stroke-linejoin:round"
     inkscape:connector-curvature="0"
     id="path41"
     d="M 21.76825,19.211134 V 230.70719" />
  <path
     style="fill:#000000;fill-opacity:0;fill-rule:evenodd"
     inkscape:connector-curvature="0"
     id="path43"
     d="M 56.1847,19.211134 V 230.70719" />
  <path
     style="fill-rule:evenodd;stroke:#595959;stroke-width:1;stroke-linecap:butt;stroke-linejoin:round"
     inkscape:connector-curvature="0"
     id="path45"
     d="M 56.184692,19.211134 V 230.70719" />
  <path
     style="fill:#000000;fill-opacity:0;fill-rule:evenodd"
     inkscape:connector-curvature="0"
     id="path47"
     d="M 90.601145,19.211134 V 230.70719" />
  <path
     style="fill-rule:evenodd;stroke:#595959;stroke-width:1;stroke-linecap:butt;stroke-linejoin:round"
     inkscape:connector-curvature="0"
     id="path49"
     d="M 90.601145,19.211134 V 230.70719" />
  <path
     style="fill:#000000;fill-opacity:0;fill-rule:evenodd"
     inkscape:connector-curvature="0"
     id="path51"
     d="M 125.0176,19.211134 V 230.70719" />
  <path
     style="fill-rule:evenodd;stroke:#595959;stroke-width:1;stroke-linecap:butt;stroke-linejoin:round"
     inkscape:connector-curvature="0"
     id="path53"
     d="M 125.0176,19.211134 V 230.70719" />
  <path
     style="fill:#000000;fill-opacity:0;fill-rule:evenodd"
     inkscape:connector-curvature="0"
     id="path55"
     d="M 159.43403,19.211134 V 230.70719" />
  <path
     style="fill-rule:evenodd;stroke:#595959;stroke-width:1;stroke-linecap:butt;stroke-linejoin:round"
     inkscape:connector-curvature="0"
     id="path57"
     d="M 159.43403,19.211134 V 230.70719" />
  <path
     style="fill:#000000;fill-opacity:0;fill-rule:evenodd"
     inkscape:connector-curvature="0"
     id="path59"
     d="M 193.85049,19.211134 V 230.70719" />
  <path
     style="fill-rule:evenodd;stroke:#595959;stroke-width:1;stroke-linecap:butt;stroke-linejoin:round"
     inkscape:connector-curvature="0"
     id="path61"
     d="M 193.85047,19.211134 V 230.70719" />
  <path
     style="fill:#000000;fill-opacity:0;fill-rule:evenodd"
     inkscape:connector-curvature="0"
     id="path63"
     d="M 228.26693,19.211134 V 230.70719" />
  <path
     style="fill-rule:evenodd;stroke:#595959;stroke-width:1;stroke-linecap:butt;stroke-linejoin:round"
     inkscape:connector-curvature="0"
     id="path65"
     d="M 228.26693,19.211134 V 230.70719" />
  <path
     style="fill:#cc0000;fill-rule:evenodd"
     inkscape:connector-curvature="0"
     id="path67"
     d="m 214.76562,25.002796 v 0 c 0,-2.626614 2.2421,-4.755907 5.00787,-4.755907 v 0 c 1.32817,0 2.60195,0.501068 3.54111,1.392973 0.93915,0.891907 1.46677,2.101589 1.46677,3.362934 v 0 c 0,2.626614 -2.2421,4.755905 -5.00788,4.755905 v 0 c -2.76577,0 -5.00787,-2.129292 -5.00787,-4.755905 z" />
  <path
     style="fill-rule:evenodd;stroke:#595959;stroke-width:1;stroke-linecap:butt;stroke-linejoin:round"
     inkscape:connector-curvature="0"
     id="path69"
     d="m 214.76562,25.002796 v 0 c 0,-2.626614 2.2421,-4.755907 5.00787,-4.755907 v 0 c 1.32817,0 2.60195,0.501068 3.54111,1.392973 0.93915,0.891907 1.46677,2.101589 1.46677,3.362934 v 0 c 0,2.626614 -2.2421,4.755905 -5.00788,4.755905 v 0 c -2.76577,0 -5.00787,-2.129292 -5.00787,-4.755905 z" />
  <path
     style="fill:#cc0000;fill-rule:evenodd"
     inkscape:connector-curvature="0"
     id="path71"
     d="m 211.26693,37.266574 v 0 c 0,-2.626614 2.2421,-4.755905 5.00787,-4.755905 v 0 c 1.32817,0 2.60195,0.501068 3.54111,1.392971 0.93915,0.891907 1.46677,2.101589 1.46677,3.362934 v 0 c 0,2.626614 -2.2421,4.755905 -5.00788,4.755905 v 0 c -2.76577,0 -5.00787,-2.129291 -5.00787,-4.755905 z" />
  <path
     style="fill-rule:evenodd;stroke:#595959;stroke-width:1;stroke-linecap:butt;stroke-linejoin:round"
     inkscape:connector-curvature="0"
     id="path73"
     d="m 211.26693,37.266574 v 0 c 0,-2.626614 2.2421,-4.755905 5.00787,-4.755905 v 0 c 1.32817,0 2.60195,0.501068 3.54111,1.392971 0.93915,0.891907 1.46677,2.101589 1.46677,3.362934 v 0 c 0,2.626614 -2.2421,4.755905 -5.00788,4.755905 v 0 c -2.76577,0 -5.00787,-2.129291 -5.00787,-4.755905 z" />
  <path
     style="fill:#cc0000;fill-rule:evenodd"
     inkscape:connector-curvature="0"
     id="path75"
     d="m 201.25119,46.778384 v 0 c 0,-2.626614 2.2421,-4.755905 5.00787,-4.755905 v 0 c 1.32817,0 2.60195,0.501068 3.54111,1.392971 0.93915,0.891907 1.46677,2.101589 1.46677,3.362934 v 0 c 0,2.626614 -2.2421,4.755905 -5.00788,4.755905 v 0 c -2.76577,0 -5.00787,-2.129291 -5.00787,-4.755905 z" />
  <path
     style="fill-rule:evenodd;stroke:#595959;stroke-width:1;stroke-linecap:butt;stroke-linejoin:round"
     inkscape:connector-curvature="0"
     id="path77"
     d="m 201.25119,46.778384 v 0 c 0,-2.626614 2.2421,-4.755905 5.00787,-4.755905 v 0 c 1.32817,0 2.60195,0.501068 3.54111,1.392971 0.93915,0.891907 1.46677,2.101589 1.46677,3.362934 v 0 c 0,2.626614 -2.2421,4.755905 -5.00788,4.755905 v 0 c -2.76577,0 -5.00787,-2.129291 -5.00787,-4.755905 z" />
  <path
     style="fill:#cc0000;fill-rule:evenodd"
     inkscape:connector-curvature="0"
     id="path79"
     d="m 201.25119,59.040854 v 0 c 0,-2.626617 2.2421,-4.755905 5.00787,-4.755905 v 0 c 1.32817,0 2.60195,0.50106 3.54111,1.392967 0.93915,0.891907 1.46677,2.101593 1.46677,3.362938 v 0 c 0,2.62661 -2.2421,4.755905 -5.00788,4.755905 v 0 c -2.76577,0 -5.00787,-2.129295 -5.00787,-4.755905 z" />
  <path
     style="fill-rule:evenodd;stroke:#595959;stroke-width:1;stroke-linecap:butt;stroke-linejoin:round"
     inkscape:connector-curvature="0"
     id="path81"
     d="m 201.25119,59.040854 v 0 c 0,-2.626617 2.2421,-4.755905 5.00787,-4.755905 v 0 c 1.32817,0 2.60195,0.50106 3.54111,1.392967 0.93915,0.891907 1.46677,2.101593 1.46677,3.362938 v 0 c 0,2.62661 -2.2421,4.755905 -5.00788,4.755905 v 0 c -2.76577,0 -5.00787,-2.129295 -5.00787,-4.755905 z" />
  <path
     style="fill:#cc0000;fill-rule:evenodd"
     inkscape:connector-curvature="0"
     id="path83"
     d="m 191.23544,65.040854 v 0 c 0,-2.626617 2.2421,-4.755905 5.00787,-4.755905 v 0 c 1.32817,0 2.60195,0.50106 3.54111,1.392967 0.93915,0.891907 1.46677,2.101593 1.46677,3.362938 v 0 c 0,2.62661 -2.2421,4.755905 -5.00788,4.755905 v 0 c -2.76577,0 -5.00787,-2.129295 -5.00787,-4.755905 z" />
  <path
     style="fill-rule:evenodd;stroke:#595959;stroke-width:1;stroke-linecap:butt;stroke-linejoin:round"
     inkscape:connector-curvature="0"
     id="path85"
     d="m 191.23544,65.040854 v 0 c 0,-2.626617 2.2421,-4.755905 5.00787,-4.755905 v 0 c 1.32817,0 2.60195,0.50106 3.54111,1.392967 0.93915,0.891907 1.46677,2.101593 1.46677,3.362938 v 0 c 0,2.62661 -2.2421,4.755905 -5.00788,4.755905 v 0 c -2.76577,0 -5.00787,-2.129295 -5.00787,-4.755905 z" />
  <path
     style="fill:#cc0000;fill-rule:evenodd"
     inkscape:connector-curvature="0"
     id="path87"
     d="m 178.73412,62.542164 v 0 c 0,-2.626617 2.2421,-4.755905 5.00787,-4.755905 v 0 c 1.32817,0 2.60195,0.50106 3.54111,1.392967 0.93916,0.891907 1.46677,2.101593 1.46677,3.362938 v 0 c 0,2.62661 -2.2421,4.755905 -5.00788,4.755905 v 0 c -2.76577,0 -5.00787,-2.129295 -5.00787,-4.755905 z" />
  <path
     style="fill-rule:evenodd;stroke:#595959;stroke-width:1;stroke-linecap:butt;stroke-linejoin:round"
     inkscape:connector-curvature="0"
     id="path89"
     d="m 178.73412,62.542164 v 0 c 0,-2.626617 2.2421,-4.755905 5.00787,-4.755905 v 0 c 1.32817,0 2.60195,0.50106 3.54111,1.392967 0.93916,0.891907 1.46677,2.101593 1.46677,3.362938 v 0 c 0,2.62661 -2.2421,4.755905 -5.00788,4.755905 v 0 c -2.76577,0 -5.00787,-2.129295 -5.00787,-4.755905 z" />
  <path
     style="fill:#cc0000;fill-rule:evenodd"
     inkscape:connector-curvature="0"
     id="path91"
     d="m 166.23282,62.542164 v 0 c 0,-2.626617 2.2421,-4.755905 5.00787,-4.755905 v 0 c 1.32817,0 2.60195,0.50106 3.54111,1.392967 0.93915,0.891907 1.46677,2.101593 1.46677,3.362938 v 0 c 0,2.62661 -2.2421,4.755905 -5.00788,4.755905 v 0 c -2.76577,0 -5.00787,-2.129295 -5.00787,-4.755905 z" />
  <path
     style="fill-rule:evenodd;stroke:#595959;stroke-width:1;stroke-linecap:butt;stroke-linejoin:round"
     inkscape:connector-curvature="0"
     id="path93"
     d="m 166.23282,62.542164 v 0 c 0,-2.626617 2.2421,-4.755905 5.00787,-4.755905 v 0 c 1.32817,0 2.60195,0.50106 3.54111,1.392967 0.93915,0.891907 1.46677,2.101593 1.46677,3.362938 v 0 c 0,2.62661 -2.2421,4.755905 -5.00788,4.755905 v 0 c -2.76577,0 -5.00787,-2.129295 -5.00787,-4.755905 z" />
  <path
     style="fill:#cc0000;fill-rule:evenodd"
     inkscape:connector-curvature="0"
     id="path95"
     d="m 156.21707,72.342689 v 0 c 0,-2.626617 2.2421,-4.755905 5.00787,-4.755905 v 0 c 1.32817,0 2.60195,0.501068 3.5411,1.392975 0.93916,0.891907 1.46678,2.101585 1.46678,3.36293 v 0 c 0,2.626618 -2.2421,4.755905 -5.00788,4.755905 v 0 c -2.76577,0 -5.00787,-2.129288 -5.00787,-4.755905 z" />
  <path
     style="fill-rule:evenodd;stroke:#595959;stroke-width:1;stroke-linecap:butt;stroke-linejoin:round"
     inkscape:connector-curvature="0"
     id="path97"
     d="m 156.21707,72.342689 v 0 c 0,-2.626617 2.2421,-4.755905 5.00787,-4.755905 v 0 c 1.32817,0 2.60195,0.501068 3.5411,1.392975 0.93916,0.891907 1.46678,2.101585 1.46678,3.36293 v 0 c 0,2.626618 -2.2421,4.755905 -5.00788,4.755905 v 0 c -2.76577,0 -5.00787,-2.129288 -5.00787,-4.755905 z" />
  <path
     style="fill:#cc0000;fill-rule:evenodd"
     inkscape:connector-curvature="0"
     id="path99"
     d="m 149.41917,83.229828 v 0 c 0,-2.62661 2.2421,-4.755905 5.00787,-4.755905 v 0 c 1.32817,0 2.60195,0.501068 3.5411,1.392975 0.93916,0.891907 1.46678,2.101585 1.46678,3.36293 v 0 c 0,2.626615 -2.24211,4.755905 -5.00788,4.755905 v 0 c -2.76577,0 -5.00787,-2.12929 -5.00787,-4.755905 z" />
  <path
     style="fill-rule:evenodd;stroke:#595959;stroke-width:1;stroke-linecap:butt;stroke-linejoin:round"
     inkscape:connector-curvature="0"
     id="path101"
     d="m 149.41917,83.229828 v 0 c 0,-2.62661 2.2421,-4.755905 5.00787,-4.755905 v 0 c 1.32817,0 2.60195,0.501068 3.5411,1.392975 0.93916,0.891907 1.46678,2.101585 1.46678,3.36293 v 0 c 0,2.626615 -2.24211,4.755905 -5.00788,4.755905 v 0 c -2.76577,0 -5.00787,-2.12929 -5.00787,-4.755905 z" />
  <path
     style="fill:#cc0000;fill-rule:evenodd"
     inkscape:connector-curvature="0"
     id="path103"
     d="m 149.41917,96.531673 v 0 c 0,-2.62662 2.2421,-4.75591 5.00787,-4.75591 v 0 c 1.32817,0 2.60195,0.50106 3.5411,1.39297 0.93916,0.8919 1.46678,2.10159 1.46678,3.36294 v 0 c 0,2.62661 -2.24211,4.755897 -5.00788,4.755897 v 0 c -2.76577,0 -5.00787,-2.129287 -5.00787,-4.755897 z" />
  <path
     style="fill-rule:evenodd;stroke:#595959;stroke-width:1;stroke-linecap:butt;stroke-linejoin:round"
     inkscape:connector-curvature="0"
     id="path105"
     d="m 149.41917,96.531673 v 0 c 0,-2.62662 2.2421,-4.75591 5.00787,-4.75591 v 0 c 1.32817,0 2.60195,0.50106 3.5411,1.39297 0.93916,0.8919 1.46678,2.10159 1.46678,3.36294 v 0 c 0,2.62661 -2.24211,4.755897 -5.00788,4.755897 v 0 c -2.76577,0 -5.00787,-2.129287 -5.00787,-4.755897 z" />
  <path
     style="fill:#cc0000;fill-rule:evenodd"
     inkscape:connector-curvature="0"
     id="path107"
     d="m 161.92049,96.531673 v 0 c 0,-2.62662 2.24209,-4.75591 5.00786,-4.75591 v 0 c 1.32817,0 2.60195,0.50106 3.5411,1.39297 0.93916,0.8919 1.46678,2.10159 1.46678,3.36294 v 0 c 0,2.62661 -2.2421,4.755897 -5.00788,4.755897 v 0 c -2.76577,0 -5.00786,-2.129287 -5.00786,-4.755897 z" />
  <path
     style="fill-rule:evenodd;stroke:#595959;stroke-width:1;stroke-linecap:butt;stroke-linejoin:round"
     inkscape:connector-curvature="0"
     id="path109"
     d="m 161.92049,96.531673 v 0 c 0,-2.62662 2.24209,-4.75591 5.00786,-4.75591 v 0 c 1.32817,0 2.60195,0.50106 3.5411,1.39297 0.93916,0.8919 1.46678,2.10159 1.46678,3.36294 v 0 c 0,2.62661 -2.2421,4.755897 -5.00788,4.755897 v 0 c -2.76577,0 -5.00786,-2.129287 -5.00786,-4.755897 z" />
  <path
     style="fill:#cc0000;fill-rule:evenodd"
     inkscape:connector-curvature="0"
     id="path111"
     d="m 171.63438,83.229828 v 0 c 0,-2.62661 2.24211,-4.755905 5.00789,-4.755905 v 0 c 1.32817,0 2.60194,0.501068 3.54109,1.392975 0.93916,0.891907 1.46678,2.101585 1.46678,3.36293 v 0 c 0,2.626615 -2.24211,4.755905 -5.00787,4.755905 v 0 c -2.76578,0 -5.00789,-2.12929 -5.00789,-4.755905 z" />
  <path
     style="fill-rule:evenodd;stroke:#595959;stroke-width:1;stroke-linecap:butt;stroke-linejoin:round"
     inkscape:connector-curvature="0"
     id="path113"
     d="m 171.63438,83.229828 v 0 c 0,-2.62661 2.24211,-4.755905 5.00789,-4.755905 v 0 c 1.32817,0 2.60194,0.501068 3.54109,1.392975 0.93916,0.891907 1.46678,2.101585 1.46678,3.36293 v 0 c 0,2.626615 -2.24211,4.755905 -5.00787,4.755905 v 0 c -2.76578,0 -5.00789,-2.12929 -5.00789,-4.755905 z" />
  <path
     style="fill:#cc0000;fill-rule:evenodd"
     inkscape:connector-curvature="0"
     id="path115"
     d="m 182.742,83.229828 v 0 c 0,-2.62661 2.2421,-4.755905 5.00787,-4.755905 v 0 c 1.32817,0 2.60195,0.501068 3.54111,1.392975 0.93916,0.891907 1.46677,2.101585 1.46677,3.36293 v 0 c 0,2.626615 -2.2421,4.755905 -5.00788,4.755905 v 0 c -2.76577,0 -5.00787,-2.12929 -5.00787,-4.755905 z" />
  <path
     style="fill-rule:evenodd;stroke:#595959;stroke-width:1;stroke-linecap:butt;stroke-linejoin:round"
     inkscape:connector-curvature="0"
     id="path117"
     d="m 182.742,83.229828 v 0 c 0,-2.62661 2.2421,-4.755905 5.00787,-4.755905 v 0 c 1.32817,0 2.60195,0.501068 3.54111,1.392975 0.93916,0.891907 1.46677,2.101585 1.46677,3.36293 v 0 c 0,2.626615 -2.2421,4.755905 -5.00788,4.755905 v 0 c -2.76577,0 -5.00787,-2.12929 -5.00787,-4.755905 z" />
  <path
     style="fill:#cc0000;fill-rule:evenodd"
     inkscape:connector-curvature="0"
     id="path119"
     d="m 194.94148,83.303324 v 0 c 0,-2.626617 2.2421,-4.755905 5.00787,-4.755905 v 0 c 1.32817,0 2.60195,0.501068 3.5411,1.392967 0.93916,0.891907 1.46678,2.101593 1.46678,3.362938 v 0 c 0,2.626609 -2.24211,4.755909 -5.00788,4.755909 v 0 c -2.76577,0 -5.00787,-2.1293 -5.00787,-4.755909 z" />
  <path
     style="fill-rule:evenodd;stroke:#595959;stroke-width:1;stroke-linecap:butt;stroke-linejoin:round"
     inkscape:connector-curvature="0"
     id="path121"
     d="m 194.94148,83.303324 v 0 c 0,-2.626617 2.2421,-4.755905 5.00787,-4.755905 v 0 c 1.32817,0 2.60195,0.501068 3.5411,1.392967 0.93916,0.891907 1.46678,2.101593 1.46678,3.362938 v 0 c 0,2.626609 -2.24211,4.755909 -5.00788,4.755909 v 0 c -2.76577,0 -5.00787,-2.1293 -5.00787,-4.755909 z" />
  <path
     style="fill:#0b5394;fill-rule:evenodd"
     inkscape:connector-curvature="0"
     id="path123"
     d="m 111.50973,46.779697 v 0 c 0,-2.626614 2.24209,-4.755905 5.00787,-4.755905 v 0 c 1.32817,0 2.60194,0.501068 3.54111,1.392971 0.93914,0.891907 1.46675,2.101589 1.46675,3.362934 v 0 c 0,2.626614 -2.24208,4.755905 -5.00786,4.755905 v 0 c -2.76578,0 -5.00787,-2.129291 -5.00787,-4.755905 z" />
  <path
     style="fill-rule:evenodd;stroke:#595959;stroke-width:1;stroke-linecap:butt;stroke-linejoin:round"
     inkscape:connector-curvature="0"
     id="path125"
     d="m 111.50973,46.779697 v 0 c 0,-2.626614 2.24209,-4.755905 5.00787,-4.755905 v 0 c 1.32817,0 2.60194,0.501068 3.54111,1.392971 0.93914,0.891907 1.46675,2.101589 1.46675,3.362934 v 0 c 0,2.626614 -2.24208,4.755905 -5.00786,4.755905 v 0 c -2.76578,0 -5.00787,-2.129291 -5.00787,-4.755905 z" />
  <path
     style="fill:#0b5394;fill-rule:evenodd"
     inkscape:connector-curvature="0"
     id="path127"
     d="m 123.70919,50.5671 v 0 c 0,-2.626614 2.2421,-4.755905 5.00787,-4.755905 v 0 c 1.32817,0 2.60195,0.501064 3.5411,1.392971 0.93916,0.891907 1.46678,2.101589 1.46678,3.362934 v 0 c 0,2.626614 -2.24211,4.755905 -5.00788,4.755905 v 0 c -2.76577,0 -5.00787,-2.129291 -5.00787,-4.755905 z" />
  <path
     style="fill-rule:evenodd;stroke:#595959;stroke-width:1;stroke-linecap:butt;stroke-linejoin:round"
     inkscape:connector-curvature="0"
     id="path129"
     d="m 123.70919,50.5671 v 0 c 0,-2.626614 2.2421,-4.755905 5.00787,-4.755905 v 0 c 1.32817,0 2.60195,0.501064 3.5411,1.392971 0.93916,0.891907 1.46678,2.101589 1.46678,3.362934 v 0 c 0,2.626614 -2.24211,4.755905 -5.00788,4.755905 v 0 c -2.76577,0 -5.00787,-2.129291 -5.00787,-4.755905 z" />
  <path
     style="fill:#0b5394;fill-rule:evenodd"
     inkscape:connector-curvature="0"
     id="path131"
     d="m 129.65802,59.042164 v 0 c 0,-2.626617 2.2421,-4.755905 5.00787,-4.755905 v 0 c 1.32817,0 2.60195,0.50106 3.5411,1.392967 0.93916,0.891907 1.46678,2.101593 1.46678,3.362938 v 0 c 0,2.62661 -2.24211,4.755905 -5.00788,4.755905 v 0 c -2.76577,0 -5.00787,-2.129295 -5.00787,-4.755905 z" />
  <path
     style="fill-rule:evenodd;stroke:#595959;stroke-width:1;stroke-linecap:butt;stroke-linejoin:round"
     inkscape:connector-curvature="0"
     id="path133"
     d="m 129.65802,59.042164 v 0 c 0,-2.626617 2.2421,-4.755905 5.00787,-4.755905 v 0 c 1.32817,0 2.60195,0.50106 3.5411,1.392967 0.93916,0.891907 1.46678,2.101593 1.46678,3.362938 v 0 c 0,2.62661 -2.24211,4.755905 -5.00788,4.755905 v 0 c -2.76577,0 -5.00787,-2.129295 -5.00787,-4.755905 z" />
  <path
     style="fill:#0b5394;fill-rule:evenodd"
     inkscape:connector-curvature="0"
     id="path135"
     d="m 127.15932,70.44899 v 0 c 0,-2.626617 2.2421,-4.755905 5.00787,-4.755905 v 0 c 1.32817,0 2.60195,0.501068 3.5411,1.392975 0.93916,0.891899 1.46678,2.101585 1.46678,3.36293 v 0 c 0,2.62661 -2.24211,4.755905 -5.00788,4.755905 v 0 c -2.76577,0 -5.00787,-2.129295 -5.00787,-4.755905 z" />
  <path
     style="fill-rule:evenodd;stroke:#595959;stroke-width:1;stroke-linecap:butt;stroke-linejoin:round"
     inkscape:connector-curvature="0"
     id="path137"
     d="m 127.15932,70.44899 v 0 c 0,-2.626617 2.2421,-4.755905 5.00787,-4.755905 v 0 c 1.32817,0 2.60195,0.501068 3.5411,1.392975 0.93916,0.891899 1.46678,2.101585 1.46678,3.36293 v 0 c 0,2.62661 -2.24211,4.755905 -5.00788,4.755905 v 0 c -2.76577,0 -5.00787,-2.129295 -5.00787,-4.755905 z" />
  <path
     style="fill:#0b5394;fill-rule:evenodd"
     inkscape:connector-curvature="0"
     id="path139"
     d="m 115.00185,78.068414 v 0 c 0,-2.626617 2.24209,-4.755905 5.00787,-4.755905 v 0 c 1.32817,0 2.60194,0.501068 3.54111,1.392975 0.93915,0.891899 1.46677,2.101585 1.46677,3.36293 v 0 c 0,2.62661 -2.2421,4.755905 -5.00788,4.755905 v 0 c -2.76578,0 -5.00787,-2.129295 -5.00787,-4.755905 z" />
  <path
     style="fill-rule:evenodd;stroke:#595959;stroke-width:1;stroke-linecap:butt;stroke-linejoin:round"
     inkscape:connector-curvature="0"
     id="path141"
     d="m 115.00185,78.068414 v 0 c 0,-2.626617 2.24209,-4.755905 5.00787,-4.755905 v 0 c 1.32817,0 2.60194,0.501068 3.54111,1.392975 0.93915,0.891899 1.46677,2.101585 1.46677,3.36293 v 0 c 0,2.62661 -2.2421,4.755905 -5.00788,4.755905 v 0 c -2.76578,0 -5.00787,-2.129295 -5.00787,-4.755905 z" />
  <path
     style="fill:#0b5394;fill-rule:evenodd"
     inkscape:connector-curvature="0"
     id="path143"
     d="m 102.80106,85.648463 v 0 c 0,-2.626612 2.2421,-4.755908 5.00787,-4.755908 v 0 c 1.32817,0 2.60195,0.501068 3.54111,1.392975 0.93916,0.891907 1.46677,2.101593 1.46677,3.362933 v 0 c 0,2.62661 -2.2421,4.75591 -5.00788,4.75591 v 0 c -2.76577,0 -5.00787,-2.1293 -5.00787,-4.75591 z" />
  <path
     style="fill-rule:evenodd;stroke:#595959;stroke-width:1;stroke-linecap:butt;stroke-linejoin:round"
     inkscape:connector-curvature="0"
     id="path145"
     d="m 102.80106,85.648463 v 0 c 0,-2.626612 2.2421,-4.755908 5.00787,-4.755908 v 0 c 1.32817,0 2.60195,0.501068 3.54111,1.392975 0.93916,0.891907 1.46677,2.101593 1.46677,3.362933 v 0 c 0,2.62661 -2.2421,4.75591 -5.00788,4.75591 v 0 c -2.76577,0 -5.00787,-2.1293 -5.00787,-4.75591 z" />
  <path
     style="fill:#0b5394;fill-rule:evenodd"
     inkscape:connector-curvature="0"
     id="path147"
     d="m 102.79975,96.532983 v 0 c 0,-2.62662 2.24209,-4.7559 5.00787,-4.7559 v 0 c 1.32817,0 2.60195,0.50106 3.54111,1.39296 0.93916,0.89191 1.46677,2.1016 1.46677,3.36294 v 0 c 0,2.62661 -2.2421,4.755907 -5.00788,4.755907 v 0 c -2.76578,0 -5.00787,-2.129297 -5.00787,-4.755907 z" />
  <path
     style="fill-rule:evenodd;stroke:#595959;stroke-width:1;stroke-linecap:butt;stroke-linejoin:round"
     inkscape:connector-curvature="0"
     id="path149"
     d="m 102.79975,96.532983 v 0 c 0,-2.62662 2.24209,-4.7559 5.00787,-4.7559 v 0 c 1.32817,0 2.60195,0.50106 3.54111,1.39296 0.93916,0.89191 1.46677,2.1016 1.46677,3.36294 v 0 c 0,2.62661 -2.2421,4.755907 -5.00788,4.755907 v 0 c -2.76578,0 -5.00787,-2.129297 -5.00787,-4.755907 z" />
  <path
     style="fill:#000000;fill-opacity:0;fill-rule:evenodd"
     inkscape:connector-curvature="0"
     id="path151"
     d="m 66.764705,43.209118 c 9.4645,-2.359917 20.36225,15.776813 15.99999,24.501308 -3.67027,7.340553 -15.9331,5.075813 -22.49868,10 -3.97746,2.983097 -3.50131,9.526867 -3.50131,14.498687" />
  <path
     style="fill-rule:evenodd;stroke:#0b5394;stroke-width:1;stroke-linecap:butt;stroke-linejoin:round"
     inkscape:connector-curvature="0"
     id="path153"
     d="m 116.76471,47.209118 c 9.4645,-2.359917 20.36224,15.776813 15.99999,24.501308 -3.67027,7.340553 -15.9331,5.075813 -22.49868,10 -3.97746,2.983097 -3.50131,9.526867 -3.50131,14.498687" />
  <path
     style="fill:#000000;fill-rule:nonzero"
     inkscape:connector-curvature="0"
     id="path161"
     d="m 0.546875,37.258104 q 0,-2.359375 0.484375,-3.796875 0.484375,-1.453125 1.4375,-2.234375 0.96875,-0.78125 2.421875,-0.78125 1.078125,0 1.890625,0.4375 0.8125,0.421875 1.328125,1.25 0.53125,0.8125 0.828125,1.984375 0.3125,1.15625 0.3125,3.140625 0,2.359375 -0.484375,3.8125 -0.484375,1.4375 -1.453125,2.234375 -0.953125,0.78125 -2.421875,0.78125 -1.921875,0 -3.03125,-1.390625 -1.3125,-1.671875 -1.3125,-5.4375 z m 1.671875,0 q 0,3.296875 0.765625,4.390625 0.78125,1.078125 1.90625,1.078125 1.140625,0 1.90625,-1.09375 0.765625,-1.09375 0.765625,-4.375 0,-3.296875 -0.765625,-4.375 Q 6.03125,31.804979 4.875,31.804979 q -1.125,0 -1.796875,0.953125 -0.859375,1.21875 -0.859375,4.5 z" />
  <path
     style="fill:#000000;fill-rule:nonzero"
     inkscape:connector-curvature="0"
     id="path163"
     d="M 6.71875,79.046465 H 5.078125 V 68.59334 q -0.59375,0.5625 -1.5625,1.140625 -0.953125,0.5625 -1.71875,0.84375 v -1.59375 q 1.375,-0.640625 2.40625,-1.5625 1.03125,-0.921875 1.453125,-1.78125 h 1.0625 z" />
  <path
     style="fill:#000000;fill-rule:nonzero"
     inkscape:connector-curvature="0"
     id="path165"
     d="m 9.15625,112.54575 v 1.57813 H 0.328125 q -0.01563,-0.59375 0.1875,-1.14063 0.34375,-0.90625 1.078125,-1.78125 0.75,-0.875 2.15625,-2.01562 2.171875,-1.78125 2.9375,-2.82813 0.765625,-1.04687 0.765625,-1.96875 0,-0.98437 -0.703125,-1.64062 -0.6875,-0.67188 -1.8125,-0.67188 -1.1875,0 -1.90625,0.71875 -0.703125,0.70313 -0.703125,1.95313 l -1.6875,-0.17188 q 0.171875,-1.89062 1.296875,-2.875 1.140625,-0.98437 3.03125,-0.98437 1.921875,0 3.046875,1.0625 1.125,1.0625 1.125,2.64062 0,0.79688 -0.328125,1.57813 -0.328125,0.78125 -1.09375,1.64062 -0.75,0.84375 -2.53125,2.34375 -1.46875,1.23438 -1.890625,1.6875 -0.421875,0.4375 -0.6875,0.875 z" />
  <path
     style="fill:#000000;fill-rule:nonzero"
     inkscape:connector-curvature="0"
     id="path167"
     d="M 0.546875,145.5529 2.1875,145.33415 q 0.28125,1.40625 0.953125,2.01562 0.6875,0.60938 1.65625,0.60938 1.15625,0 1.953125,-0.79688 0.796875,-0.79687 0.796875,-1.98437 0,-1.125 -0.734375,-1.85938 -0.734375,-0.73437 -1.875,-0.73437 -0.46875,0 -1.15625,0.17187 l 0.1875,-1.4375 q 0.15625,0.0156 0.265625,0.0156 1.046875,0 1.875,-0.54688 0.84375,-0.54687 0.84375,-1.67187 0,-0.90625 -0.609375,-1.5 -0.609375,-0.59372 -1.578125,-0.59372 -0.953125,0 -1.59375,0.60937 -0.640625,0.59375 -0.8125,1.79688 L 0.71875,139.13102 q 0.296875,-1.64062 1.359375,-2.54687 1.0625,-0.90625 2.65625,-0.90625 1.09375,0 2,0.46875 0.921875,0.46875 1.40625,1.28125 0.5,0.8125 0.5,1.71875 0,0.85937 -0.46875,1.57812 -0.46875,0.70313 -1.375,1.125 1.1875,0.28125 1.84375,1.14063 0.65625,0.85937 0.65625,2.15625 0,1.73437 -1.28125,2.95312 -1.265625,1.21875 -3.21875,1.21875 -1.765625,0 -2.921875,-1.04687 -1.15625,-1.04688 -1.328125,-2.71875 z" />
  <path
     style="fill:#000000;fill-rule:nonzero"
     inkscape:connector-curvature="0"
     id="path169"
     d="m 5.796875,184.25532 v -3.20313 H 0 v -1.5 l 6.09375,-8.65625 H 7.4375 v 8.65625 h 1.796875 v 1.5 H 7.4375 v 3.20313 z m 0,-4.70313 v -6.01562 l -4.1875,6.01562 z" />
  <path
     style="fill:#000000;fill-rule:nonzero"
     inkscape:connector-curvature="0"
     id="path171"
     d="m 0.546875,215.62181 1.71875,-0.14063 q 0.1875,1.25 0.875,1.89063 0.703125,0.625 1.6875,0.625 1.1875,0 2,-0.89063 0.828125,-0.89062 0.828125,-2.35937 0,-1.40625 -0.796875,-2.21875 -0.78125,-0.8125 -2.0625,-0.8125 -0.78125,0 -1.421875,0.35937 -0.640625,0.35938 -1,0.9375 L 0.828125,212.80931 2.125,205.94993 h 6.640625 v 1.5625 H 3.4375 l -0.71875,3.59375 q 1.203125,-0.84375 2.515625,-0.84375 1.75,0 2.953125,1.21875 1.203125,1.20313 1.203125,3.10938 0,1.8125 -1.046875,3.14062 -1.296875,1.625 -3.515625,1.625 -1.8125,0 -2.96875,-1.01562 -1.15625,-1.03125 -1.3125,-2.71875 z" />
  <path
     style="fill:#000000;fill-opacity:0;fill-rule:evenodd"
     inkscape:connector-curvature="0"
     id="path173"
     d="m 94.266935,93.031673 v 0 c 0,-4.23564 3.9554,-7.6693 8.834635,-7.6693 v 0 c 4.87924,0 8.83466,3.43366 8.83466,7.6693 v 0 c 0,4.23562 -3.95542,7.669277 -8.83466,7.669277 v 0 c -4.879235,0 -8.834635,-3.433657 -8.834635,-7.669277 z" />
  <path
     style="fill:#000000;fill-rule:nonzero"
     inkscape:connector-curvature="0"
     id="path161-3"
     d="m 34.624907,6.8125 q 0,-2.359375 0.484375,-3.796875 Q 35.593657,1.5625 36.546782,0.78125 37.515532,0 38.968657,0 q 1.078125,0 1.890625,0.4375 0.8125,0.421875 1.328125,1.25 0.53125,0.8125 0.828125,1.984375 0.3125,1.15625 0.3125,3.140625 0,2.359375 -0.484375,3.8125 -0.484375,1.4375 -1.453125,2.234375 -0.953125,0.78125 -2.421875,0.78125 -1.921875,0 -3.03125,-1.390625 -1.3125,-1.671875 -1.3125,-5.4375 z m 1.671875,0 q 0,3.296875 0.765625,4.390625 0.78125,1.078125 1.90625,1.078125 1.140625,0 1.90625,-1.09375 0.765625,-1.09375 0.765625,-4.375 0,-3.296875 -0.765625,-4.375 -0.765625,-1.078125 -1.921875,-1.078125 -1.125,0 -1.796875,0.953125 -0.859375,1.21875 -0.859375,4.5 z" />
  <path
     style="fill:#000000;fill-rule:nonzero"
     inkscape:connector-curvature="0"
     id="path163-6"
     d="M 75.853862,13.523438 H 74.213237 V 3.070313 q -0.59375,0.5625 -1.5625,1.140625 -0.953125,0.5625 -1.71875,0.84375 v -1.59375 q 1.375,-0.640625 2.40625,-1.5625 1.03125,-0.921875 1.453125,-1.781251 h 1.0625 z" />
  <path
     style="fill:#000000;fill-rule:nonzero"
     inkscape:connector-curvature="0"
     id="path165-7"
     d="m 112.22399,11.945308 v 1.57813 h -8.82812 q -0.0156,-0.59375 0.1875,-1.14063 0.34375,-0.90625 1.07812,-1.78125 0.75,-0.875 2.15625,-2.01562 2.17188,-1.78125 2.9375,-2.82813 0.76563,-1.04687 0.76563,-1.96875 0,-0.98437 -0.70313,-1.64062 -0.6875,-0.67188 -1.8125,-0.67188 -1.1875,0 -1.90625,0.71875 -0.70312,0.70313 -0.70312,1.95313 l -1.6875,-0.17188 q 0.17187,-1.89062 1.29687,-2.875 1.14063,-0.984371 3.03125,-0.984371 1.92188,0 3.04688,1.062501 1.125,1.0625 1.125,2.64062 0,0.79688 -0.32813,1.57813 -0.32812,0.78125 -1.09375,1.64062 -0.75,0.84375 -2.53125,2.34375 -1.46875,1.23438 -1.89062,1.6875 -0.42188,0.4375 -0.6875,0.875 z" />
  <path
     style="fill:#000000;fill-rule:nonzero"
     inkscape:connector-curvature="0"
     id="path167-5"
     d="m 137.85081,9.875003 1.64063,-0.21875 q 0.28125,1.40625 0.95312,2.01562 0.6875,0.60938 1.65625,0.60938 1.15625,0 1.95313,-0.79688 0.79687,-0.79687 0.79687,-1.98437 0,-1.125 -0.73437,-1.85938 -0.73438,-0.73437 -1.875,-0.73437 -0.46875,0 -1.15625,0.17187 l 0.1875,-1.4375 q 0.15625,0.0156 0.26562,0.0156 1.04688,0 1.875,-0.54688 0.84375,-0.54687 0.84375,-1.67187 0,-0.90625 -0.60937,-1.5 -0.60938,-0.59372 -1.57813,-0.59372 -0.95312,0 -1.59375,0.60937 -0.64062,0.59375 -0.8125,1.79688 l -1.64062,-0.29688 q 0.29687,-1.64062 1.35937,-2.54687 Q 140.44456,2e-6 142.03831,2e-6 q 1.09375,0 2,0.468751 0.92188,0.46875 1.40625,1.28125 0.5,0.8125 0.5,1.71875 0,0.85937 -0.46875,1.57812 -0.46875,0.70313 -1.375,1.125 1.1875,0.28125 1.84375,1.14063 0.65625,0.85937 0.65625,2.15625 0,1.73437 -1.28125,2.95312 -1.26562,1.21875 -3.21875,1.21875 -1.76562,0 -2.92187,-1.04687 -1.15625,-1.04688 -1.32813,-2.71875 z" />
  <path
     style="fill:#000000;fill-rule:nonzero"
     inkscape:connector-curvature="0"
     id="path169-3"
     d="m 177.82195,13.500003 v -3.20313 h -5.79687 v -1.5 l 6.09375,-8.656251 h 1.34375 v 8.656251 h 1.79687 v 1.5 h -1.79687 v 3.20313 z m 0,-4.70313 v -6.01562 l -4.1875,6.01562 z" />
  <path
     style="fill:#000000;fill-rule:nonzero"
     inkscape:connector-curvature="0"
     id="path171-5"
     d="m 206.63682,9.789068 1.71875,-0.14063 q 0.1875,1.25 0.875,1.89063 0.70312,0.625 1.6875,0.625 1.1875,0 2,-0.89063 0.82812,-0.89062 0.82812,-2.35937 0,-1.40625 -0.79687,-2.21875 -0.78125,-0.8125 -2.0625,-0.8125 -0.78125,0 -1.42188,0.35937 -0.64062,0.35938 -1,0.9375 l -1.54687,-0.20312 1.29687,-6.859381 h 6.64063 v 1.562501 h -5.32813 l -0.71875,3.59375 q 1.20313,-0.84375 2.51563,-0.84375 1.75,0 2.95312,1.21875 1.20313,1.20313 1.20313,3.10938 0,1.8125 -1.04688,3.14062 -1.29687,1.625 -3.51562,1.625 -1.8125,0 -2.96875,-1.01562 -1.15625,-1.03125 -1.3125,-2.71875 z" />
</svg>
